<svg viewBox="0 0 369.89473684210526 92.10526315789473" preserveAspectRatio="xMidYMid meet" class="css-8aabad" id="gghbgbhf"><defs id="SvgjsDefs1001"></defs><g id="SvgjsG1007" featurekey="S6ay6y-0" transform="matrix(1.0526315789473684,0,0,1.0526315789473684,-19.936844675164473,-25.294733549419202)" fill="#fff"><g xmlns="http://www.w3.org/2000/svg" fill="#fff"><path d="M106.44 67.78a43.75 43.75 0 0 1-43.75 43.75 43.75 43.75 0 0 1-43.75-43.75 43.75 43.75 0 0 1 43.75-43.75 43.75 43.75 0 0 1 43.75 43.75m-5.94-.01a37.74 37.74 0 0 0-37.74-37.74 37.74 37.74 0 0 0-37.74 37.74 37.74 37.74 0 0 0 37.74 37.74 37.74 37.74 0 0 0 37.74-37.74"></path><path d="M95.53 67.73a32.82 32.82 0 0 1-32.82 32.82 32.82 32.82 0 0 1-32.82-32.82 32.82 32.82 0 0 1 32.82-32.82 32.82 32.82 0 0 1 32.82 32.82m-5.62-.02a27.18 27.18 0 0 0-27.18-27.18 27.18 27.18 0 0 0-27.18 27.18 27.18 27.18 0 0 0 27.18 27.18 27.18 27.18 0 0 0 27.18-27.18"></path><path d="M84.73 67.69A22.03 22.03 0 0 1 62.7 89.72a22.03 22.03 0 0 1-22.03-22.03A22.03 22.03 0 0 1 62.7 45.66a22.03 22.03 0 0 1 22.03 22.03m-5.6-.01a16.44 16.44 0 0 0-16.44-16.44 16.44 16.44 0 0 0-16.44 16.44 16.44 16.44 0 0 0 16.44 16.44 16.44 16.44 0 0 0 16.44-16.44"></path><path d="M74.44 67.75A11.74 11.74 0 0 1 62.7 79.49a11.74 11.74 0 0 1-11.74-11.74A11.74 11.74 0 0 1 62.7 56.01a11.74 11.74 0 0 1 11.74 11.74m-5.72.1a6.07 6.07 0 0 0-6.07-6.07 6.07 6.07 0 0 0-6.07 6.07 6.07 6.07 0 0 0 6.07 6.07 6.07 6.07 0 0 0 6.07-6.07"></path></g></g><g id="SvgjsG1008" featurekey="j5pGhi-0" transform="matrix(4.13860150489076,0,0,4.13860150489076,104.72516585159771,-10.79339686962702)" fill="#fff"><path d="M1.7578 4.941000000000001 l8.3008 0 l0 1.4258 l-6.8555 0 l0 4.5313 l4.1797 0 l0 1.4063 l-4.1797 0 l0 5.6836 l6.7969 0 l0 1.4355 l-8.2422 0 l0 -14.482 z M12.480509375 4.59 l1.3867 0 l0 14.854 l-1.3867 0 l0 -14.854 z M15.566406875 8.477 l1.4551 0 l3.6816 8.252 l3.5742 -8.252 l1.4746 0 l-6.3965 14.619 l-1.4551 0 l2.0605 -4.7168 z M31.376928125 17.9297 q-1.015625 0.546875 -1.9921875 0.087890625 q-1.19140625 -0.908203125 -1.1328125 -2.587890625 l0 -4.5313 l2.5391 0 l0 -1.1816 l-2.5488 0 l0 -5.1758 l-1.3867 0 l0 11.123 q-0.01953125 1.171875 0.537109375 2.1484375 q0.91796875 1.552734375 2.5 1.640625 q0.83984375 0.029296875 1.9140625 -0.380859375 q-0.166015625 -0.41015625 -0.4296875 -1.142578125 z M33.476603125 14.541 l0 -1.2891 q0.15625 -0.966796875 0.44921875 -1.572265625 q0.68359375 -1.6796875 1.8359375 -2.4609375 t1.9141 -0.78125 q0.56640625 0 1.2109375 0.37109375 l-0.71289 1.1523 q-0.908203125 -0.33203125 -1.801757813 0.537109375 t-1.2354 1.8945 q-0.25390625 0.908203125 -0.25390625 3.408203125 l0 3.623 l-1.4063 0 l0 -4.8828 z M45.117190625 8.203 q2.470703125 0 4.1015625 1.787109375 q1.50390625 1.630859375 1.50390625 3.876953125 q0.01953125 5.546875 0 5.634765625 l-1.4551 0 l0 -2.4316 q-1.142578125 2.12890625 -4.150390625 2.3828125 q-2.4609375 0 -4.018554688 -1.674804688 t-1.5576 -3.9111 q0 -2.2265625 1.474609375 -3.8671875 q1.630859375 -1.796875 4.1015625 -1.796875 z M45.117190625 9.551 q-1.708984375 0 -2.939453125 1.26953125 t-1.2305 3.0664 q0 1.162109375 0.6298828125 2.236328125 t2.1338 1.8164 q3.76953125 0.83984375 5.361328125 -3.427734375 q0.087890625 -1.3671875 -0.29296875 -2.6171875 q-0.2734375 -0.56640625 -0.751953125 -1.07421875 q-1.201171875 -1.26953125 -2.91015625 -1.26953125 z M58.457034375 8.203 q2.470703125 0 4.1015625 1.787109375 q1.50390625 1.630859375 1.50390625 3.876953125 q0.01953125 5.546875 0 5.634765625 l-1.4551 0 l0 -2.4316 q-1.142578125 2.12890625 -4.150390625 2.3828125 q-2.4609375 0 -4.018554688 -1.674804688 t-1.5576 -3.9111 q0 -2.2265625 1.474609375 -3.8671875 q1.630859375 -1.796875 4.1015625 -1.796875 z M58.457034375 9.551 q-1.708984375 0 -2.939453125 1.26953125 t-1.2305 3.0664 q0 1.162109375 0.6298828125 2.236328125 t2.1338 1.8164 q3.76953125 0.83984375 5.361328125 -3.427734375 q0.087890625 -1.3671875 -0.29296875 -2.6171875 q-0.2734375 -0.56640625 -0.751953125 -1.07421875 q-1.201171875 -1.26953125 -2.91015625 -1.26953125 z"></path></g></svg>